<?xml version="1.0" encoding="utf-8"?>
<!-- Generator: Adobe Illustrator 25.2.0, SVG Export Plug-In . SVG Version: 6.00 Build 0)  -->
<svg version="1.1" id="Layer_1" xmlns="http://www.w3.org/2000/svg" xmlns:xlink="http://www.w3.org/1999/xlink" x="0px" y="0px"
	 viewBox="0 0 612 792" style="enable-background:new 0 0 612 792;" xml:space="preserve">
<style type="text/css">
	.st0{fill:#1A3662;}
	.st1{fill:#133054;}
	.st2{font-family:'Loretto-Medium';}
	.st3{font-size:224.3809px;}
	.st4{fill:#FFFFFF;}
	.st5{fill:none;stroke:#133054;stroke-width:1.1432;stroke-miterlimit:10;}
	.st6{fill:#208CBA;}
	.st7{fill:#2DABE2;}
	.st8{font-family:'Loretto-Bold';}
	.st9{font-size:54.4548px;}
	.st10{fill:#0C5C96;}
	.st11{fill:#49C5DE;}
	.st12{fill:#199CCF;}
</style>
<g>
	<path class="st0" d="M118.86,407c0,0-0.38,1.88-3,3c0,0-3,11.01-0.63,14.26l-0.63,3.75c-6.79-0.76-8.68-4.94-5.5-12.64l5-7.51
		L118.86,407z"/>
	<path class="st0" d="M81.2,405.5c0,0,0.13,3.75,4.13,4.5c0,0,1.63,11.51,0.63,13.89c-1,2.38,5,2.38,5,2.38L87.83,408L81.2,405.5z"
		/>
	<text transform="matrix(1.0355 0 0 1 34.4668 534.3477)" class="st1 st2 st3">a</text>
	<path class="st4" d="M138.13,469.22c-1.03-5.46-3.9-11.83-7.2-16.3c-5.23-7.08-9.92-10.79-16.51-12.95
		c-2.43-0.8-2.65-3.74-3.31-6.21c-1.68-6.31,0.87-19.88,5.75-29.26c-7.76-4.17-23.15-4.4-32.84,0.19
		c5.44,12.2,6.39,25.18,4.31,31.56c-0.58,1.79-4.68,4.96-6.37,5.78c-21.36,10.43-25.68,35.94-17.08,56.11
		c12.5,26.9,47.47,32.03,66.43,7.32C139.7,492.37,140.64,482.56,138.13,469.22z"/>
	<path class="st5" d="M117.86,405.13c0,2.49-7.84,4.5-17.52,4.5c-5.55,0-10.49-0.66-13.7-1.7c-2.39-0.77-3.82-1.75-3.82-2.81
		c0-2.49,7.84-4.5,17.52-4.5S117.86,402.64,117.86,405.13z"/>
	<path class="st6" d="M83.03,477.04c0,0,41.29-20.74,54.14,5.54l-25.99,9.66L83.03,477.04z"/>
	<path class="st7" d="M64.06,476.94c-5.07,12.2,8.88,37.47,28.78,41.79c15.83,2.95,24.76-2.85,34.55-12.51
		c5.5-5.72,9.19-13.97,10.47-22.4c0.27-1.76-1.23-3.28-2.99-3.04c-10.87-2.58-18.25,5.42-27.26,3.67
		C83.33,477.07,70.69,466.18,64.06,476.94z"/>
	<circle class="st7" cx="82.7" cy="460.05" r="5.63"/>
	<circle class="st7" cx="110.85" cy="456.67" r="4.13"/>
	<circle class="st7" cx="99.4" cy="444.1" r="4.69"/>
	<circle class="st7" cx="109.54" cy="416.32" r="2.44"/>
	<circle class="st7" cx="95.09" cy="406.38" r="1.88"/>
	<circle class="st7" cx="103.16" cy="390.8" r="1.69"/>
	<circle class="st7" cx="81.76" cy="381.04" r="5.44"/>
	<circle class="st7" cx="70.13" cy="390.43" r="2.44"/>
	<circle class="st7" cx="45.92" cy="379.35" r="1.88"/>
	<path class="st0" d="M188.22,396.66c-3.1,0-5.66-0.97-7.67-2.92c-2.01-2.24-3.02-4.63-3.02-7.18c0-2.54,1.08-5.01,3.25-7.4
		c2.32-1.94,4.88-2.92,7.67-2.92c2.63,0,5.11,0.97,7.44,2.92c2.01,1.95,3.02,4.41,3.02,7.4c0,2.84-1.01,5.24-3.02,7.18
		c-2.01,1.95-4.49,2.92-7.44,2.92H188.22z M196.82,533.98h-16.03V421.79h16.03V533.98z"/>
	<path class="st0" d="M251.33,528.76c-7.63-3.77-13.95-9.06-18.98-15.86c-3.81-4.83-6.79-10.38-8.92-16.65
		c-2.14-6.27-3.2-12.72-3.2-19.37c0-7.25,1.18-14.16,3.55-20.73c2.36-6.57,5.75-12.42,10.18-17.56
		c5.18-6.04,11.44-10.76,18.75-14.16c7.32-3.4,15.17-5.1,23.56-5.1c6.71,0,13.19,1.17,19.44,3.51c6.25,2.34,11.81,5.63,16.7,9.86
		c3.51,3.02,6.63,6.54,9.38,10.54c2.74,4,4.88,8.04,6.4,12.12l-14.41,6.12c-2.9-8.31-7.7-14.8-14.41-19.49
		c-6.71-4.68-14.33-7.02-22.87-7.02c-6.1,0-11.82,1.25-17.15,3.74c-5.34,2.49-9.83,5.93-13.49,10.31
		c-6.4,7.56-9.61,16.69-9.61,27.42c0,10.12,3.05,19.11,9.15,26.96c3.66,4.68,8.15,8.31,13.49,10.88c5.34,2.57,11.21,3.85,17.61,3.85
		c6.86,0,13.19-1.62,18.98-4.87c5.79-3.25,10.67-7.82,14.64-13.71l14.18,7.7c-5.8,8.61-12.77,15.29-20.93,20.05
		c-8.16,4.76-17.19,7.14-27.1,7.14C267.26,534.42,258.96,532.53,251.33,528.76z"/>
	<path class="st0" d="M436.84,433.57c8.05,7.85,12.08,18.44,12.08,31.75v68.88h-16.73v-67.31c0-9.57-2.4-16.86-7.2-21.88
		c-4.8-5.01-11.93-7.52-21.38-7.52c-9.76,0-17.66,2.47-23.7,7.4c-6.04,4.94-9.06,11.67-9.06,20.19v69.11h-16.73V376.91h16.96v55.2
		c4.03-3.29,8.95-5.83,14.75-7.63c5.81-1.8,11.89-2.69,18.24-2.69C417.86,421.79,428.78,425.71,436.84,433.57z"/>
	<path class="st0" d="M499.58,527.92c-8.68-5.08-15.49-12-20.45-20.76c-4.96-8.75-7.44-18.36-7.44-28.83
		c0-10.47,2.48-20.01,7.44-28.61c4.96-8.6,11.77-15.41,20.45-20.42c8.67-5.01,18.2-7.52,28.58-7.52c10.69,0,20.45,2.66,29.28,7.97
		c8.83,5.31,15.65,12.49,20.45,21.54c4.8,9.05,6.97,19.04,6.51,29.95h-96.66c0.15,7.18,2.01,13.8,5.58,19.86
		c3.56,6.06,8.4,10.85,14.52,14.36c6.12,3.52,12.97,5.27,20.56,5.27c7.59,0,14.52-1.8,20.8-5.38c6.27-3.59,11.35-8.45,15.22-14.59
		l11.39,9.65c-5.11,8.23-11.89,14.47-20.33,18.74c-8.45,4.26-17.54,6.39-27.3,6.39C517.78,535.55,508.25,533.01,499.58,527.92z
		 M566.96,467.56c-1.55-8.98-6.01-16.34-13.36-22.1c-7.36-5.76-15.76-8.64-25.21-8.64c-9.76,0-18.36,2.88-25.79,8.64
		c-7.44,5.76-11.77,13.13-13.01,22.1H566.96z"/>
	<text transform="matrix(1 0 0 1 263.8838 596.293)" class="st0 st8 st9">IIT ROORKEE</text>
	<path class="st10" d="M359.23,316.79c-12.88,8.58-26.16,13.32-40.63,14.12c-5.24,0.29-7.06,2-6.57,7.09
		c0.34,3.54,0,7.14,0.02,10.72c0.02,4.99-1.01,9.77,5.57,12.69c4.58,2.04,5.27,7.63,3.24,12.63c-2.01,4.94-5.66,7.45-11.11,7.21
		c-5.46-0.24-8.87-3.1-10.42-8.17c-1.58-5.17-0.22-10.3,4.47-12.31c5.42-2.32,5.45-5.95,5.32-10.43
		c-0.17-5.74,1.89-13.04-0.89-16.78c-2.53-3.41-10.27-2.88-15.67-4.26c-22.38-5.72-40.56-17.61-53.76-36.78
		c-0.79-1.14-1.53-2.31-2.29-3.48c-0.64-0.99-1.27-1.98-2.34-3.68c-8.25,3.87-16.4,7.69-24.99,11.72
		c3.53,13.92-1.75,24.93-11.4,34.29c-11.96,11.61-28.26,12.15-40.93,1.57c-12.29-10.26-15.09-28.19-6.48-41.37
		c13.03-19.93,37.53-21.54,53.4-3.7c1.02,1.15,4.21,1.53,5.76,0.85c10.15-4.49,20.11-9.39,30.15-14.12
		c2.11-0.99,4.29-1.84,6.73-2.87c6.82,14.48,16.4,26.1,30.28,33.76c21.31,11.77,43.08,12.59,64.95,1.94
		c4.2-2.05,6.65-1.77,9.52,1.61C353.43,311.71,356.22,313.94,359.23,316.79z"/>
	<path class="st0" d="M224.38,235.63c2.38-18.04,9.02-33.92,19.66-46.5c-8.46-9.51-16.6-18.66-24.45-27.49
		c-18.48,9.35-32.58,6.32-42.59-8.26c-7.67-11.17-5.83-25.55,4.49-35.01c10.31-9.46,24.29-9.85,35.22-1
		c12.68,10.27,15.55,24.66,7.17,38.61c13.02,12.45,26.17,25.03,39.53,37.81c-0.85,1.06-1.62,2.17-2.53,3.15
		c-14.27,15.4-20.87,33.55-18.67,54.47c0.59,5.57-0.83,8.48-6.08,10.1c-2.99,0.92-5.76,2.61-9.99,4.59
		c-0.91-9.08-1.76-17.56-2.66-26.59c-9.72-0.83-19.55-1.8-29.4-2.37c-1.44-0.08-3.44,1.4-4.43,2.72c-3.86,5.16-9.01,7.11-14.49,5.06
		c-4.93-1.85-8.26-7.03-7.8-12.15c0.47-5.23,4.47-9.65,9.69-10.71c5.24-1.06,10.11,1.89,13.19,7.02c1.16,1.94,3.76,3.93,5.91,4.19
		C205.21,234.38,214.33,234.85,224.38,235.63z"/>
	<path class="st11" d="M260.85,176.05c12.88-8.58,26.16-13.32,40.63-14.12c5.24-0.29,7.06-2,6.57-7.09c-0.34-3.54,0-7.14-0.02-10.72
		c-0.02-4.99,1.01-9.77-5.57-12.69c-4.58-2.04-5.27-7.63-3.24-12.63c2.01-4.94,5.66-7.45,11.11-7.21c5.46,0.24,8.87,3.1,10.42,8.17
		c1.58,5.17,0.22,10.3-4.47,12.31c-5.42,2.32-5.45,5.95-5.32,10.43c0.17,5.74-1.89,13.04,0.89,16.78
		c2.53,3.41,10.27,2.88,15.67,4.26c22.38,5.72,40.56,17.61,53.76,36.78c0.79,1.14,1.53,2.31,2.29,3.48
		c0.64,0.99,1.27,1.98,2.34,3.68c8.25-3.87,16.4-7.69,24.99-11.72c-3.53-13.92,1.75-24.93,11.4-34.29
		c11.96-11.61,28.26-12.15,40.93-1.57c12.29,10.26,15.09,28.19,6.48,41.37c-13.03,19.93-37.53,21.54-53.4,3.7
		c-1.02-1.15-4.21-1.53-5.76-0.85c-10.15,4.49-20.11,9.39-30.15,14.12c-2.11,0.99-4.29,1.84-6.73,2.87
		c-6.82-14.48-16.4-26.1-30.28-33.76c-21.31-11.77-43.08-12.59-64.95-1.94c-4.2,2.04-6.65,1.77-9.52-1.61
		C266.64,181.13,263.86,178.9,260.85,176.05z"/>
	<path class="st12" d="M395.7,257.21c-2.38,18.04-9.02,33.92-19.66,46.5c8.46,9.51,16.6,18.66,24.45,27.49
		c18.48-9.35,32.58-6.32,42.59,8.26c7.67,11.17,5.83,25.55-4.49,35.01c-10.31,9.46-24.29,9.85-35.22,1
		c-12.68-10.27-15.55-24.66-7.17-38.61c-13.02-12.45-26.17-25.03-39.53-37.81c0.85-1.06,1.62-2.17,2.53-3.15
		c14.27-15.4,20.87-33.55,18.67-54.47c-0.59-5.57,0.83-8.48,6.08-10.1c2.99-0.92,5.76-2.61,9.99-4.59
		c0.91,9.08,1.76,17.56,2.66,26.59c9.72,0.83,19.55,1.8,29.4,2.37c1.44,0.08,3.44-1.4,4.43-2.72c3.86-5.16,9.01-7.11,14.49-5.06
		c4.93,1.85,8.26,7.03,7.8,12.15c-0.47,5.23-4.47,9.65-9.69,10.71c-5.24,1.06-10.11-1.89-13.19-7.02c-1.16-1.94-3.76-3.93-5.91-4.19
		C414.87,258.46,405.75,257.99,395.7,257.21z"/>
	<circle class="st0" cx="309.67" cy="247.22" r="31.33"/>
</g>
</svg>
